<?xml version="1.0" encoding="UTF-8"?>
<!DOCTYPE svg
  PUBLIC '-//W3C//DTD SVG 1.1//EN'
  'http://www.w3.org/Graphics/SVG/1.1/DTD/svg11.dtd'>
<svg height="23.000mm" version="1.1" width="24.000mm" xmlns="http://www.w3.org/2000/svg">
    <!--Autogenerated with python-barcode 0.9.0-->
    <g id="barcode_group">
        <rect height="100%" style="fill:white" width="100%"/>
        <rect height="15.000mm" style="fill:black;" width="0.200mm" x="6.400mm" y="1.000mm"/>
        <rect height="15.000mm" style="fill:white;" width="0.200mm" x="6.600mm" y="1.000mm"/>
        <rect height="15.000mm" style="fill:black;" width="0.200mm" x="6.800mm" y="1.000mm"/>
        <rect height="15.000mm" style="fill:white;" width="0.200mm" x="7.000mm" y="1.000mm"/>
        <rect height="15.000mm" style="fill:black;" width="0.200mm" x="7.200mm" y="1.000mm"/>
        <rect height="15.000mm" style="fill:white;" width="0.500mm" x="7.400mm" y="1.000mm"/>
        <rect height="15.000mm" style="fill:black;" width="0.200mm" x="7.900mm" y="1.000mm"/>
        <rect height="15.000mm" style="fill:white;" width="0.200mm" x="8.100mm" y="1.000mm"/>
        <rect height="15.000mm" style="fill:black;" width="0.500mm" x="8.300mm" y="1.000mm"/>
        <rect height="15.000mm" style="fill:white;" width="0.200mm" x="8.800mm" y="1.000mm"/>
        <rect height="15.000mm" style="fill:black;" width="0.500mm" x="9.000mm" y="1.000mm"/>
        <rect height="15.000mm" style="fill:white;" width="0.200mm" x="9.500mm" y="1.000mm"/>
        <rect height="15.000mm" style="fill:black;" width="0.200mm" x="9.700mm" y="1.000mm"/>
        <rect height="15.000mm" style="fill:white;" width="0.500mm" x="9.900mm" y="1.000mm"/>
        <rect height="15.000mm" style="fill:black;" width="0.200mm" x="10.400mm" y="1.000mm"/>
        <rect height="15.000mm" style="fill:white;" width="0.500mm" x="10.600mm" y="1.000mm"/>
        <rect height="15.000mm" style="fill:black;" width="0.500mm" x="11.100mm" y="1.000mm"/>
        <rect height="15.000mm" style="fill:white;" width="0.500mm" x="11.600mm" y="1.000mm"/>
        <rect height="15.000mm" style="fill:black;" width="0.200mm" x="12.100mm" y="1.000mm"/>
        <rect height="15.000mm" style="fill:white;" width="0.200mm" x="12.300mm" y="1.000mm"/>
        <rect height="15.000mm" style="fill:black;" width="0.200mm" x="12.500mm" y="1.000mm"/>
        <rect height="15.000mm" style="fill:white;" width="0.200mm" x="12.700mm" y="1.000mm"/>
        <rect height="15.000mm" style="fill:black;" width="0.500mm" x="12.900mm" y="1.000mm"/>
        <rect height="15.000mm" style="fill:white;" width="0.200mm" x="13.400mm" y="1.000mm"/>
        <rect height="15.000mm" style="fill:black;" width="0.200mm" x="13.600mm" y="1.000mm"/>
        <rect height="15.000mm" style="fill:white;" width="0.500mm" x="13.800mm" y="1.000mm"/>
        <rect height="15.000mm" style="fill:black;" width="0.200mm" x="14.300mm" y="1.000mm"/>
        <rect height="15.000mm" style="fill:white;" width="0.200mm" x="14.500mm" y="1.000mm"/>
        <rect height="15.000mm" style="fill:black;" width="0.500mm" x="14.700mm" y="1.000mm"/>
        <rect height="15.000mm" style="fill:white;" width="0.500mm" x="15.200mm" y="1.000mm"/>
        <rect height="15.000mm" style="fill:black;" width="0.200mm" x="15.700mm" y="1.000mm"/>
        <rect height="15.000mm" style="fill:white;" width="0.200mm" x="15.900mm" y="1.000mm"/>
        <rect height="15.000mm" style="fill:black;" width="0.500mm" x="16.100mm" y="1.000mm"/>
        <rect height="15.000mm" style="fill:white;" width="0.200mm" x="16.600mm" y="1.000mm"/>
        <rect height="15.000mm" style="fill:black;" width="0.500mm" x="16.800mm" y="1.000mm"/>
        <rect height="15.000mm" style="fill:white;" width="0.200mm" x="17.300mm" y="1.000mm"/>
        <rect height="15.000mm" style="fill:black;" width="0.200mm" x="17.500mm" y="1.000mm"/>
        <text style="fill:black;font-size:10pt;text-anchor:middle;" x="12.050mm" y="21.000mm">012345</text>
    </g>
</svg>
